<?xml version="1.0" encoding="UTF-8" standalone="no"?>
<svg
   xmlns:dc="http://purl.org/dc/elements/1.1/"
   xmlns:cc="http://creativecommons.org/ns#"
   xmlns:rdf="http://www.w3.org/1999/02/22-rdf-syntax-ns#"
   xmlns:svg="http://www.w3.org/2000/svg"
   xmlns="http://www.w3.org/2000/svg"
   viewBox="0 0 1441 644"
   height="644"
   width="1441"
   id="svg815"
   version="1.1">
  <metadata
     id="metadata821">
    <rdf:RDF>
      <cc:Work
         rdf:about="">
        <dc:format>image/svg+xml</dc:format>
        <dc:type
           rdf:resource="http://purl.org/dc/dcmitype/StillImage" />
        <dc:title></dc:title>
      </cc:Work>
    </rdf:RDF>
  </metadata>
  <defs
     id="defs819" />
  <path
     id="path1368"
     d="m 1172.1546,632.4321 c 71.3404,-13.9013 142.2373,-56.9013 188.9879,-114.6241 32.5587,-40.2001 54.4616,-88.33086 63.4822,-139.49996 2.8223,-16.00917 5.0305,-36.91189 4.9653,-47.00002 l -0.055,-8.5 -3.3023,9.5 c -6.7039,19.28549 -13.0951,32.42761 -22.7952,46.87332 -22.8261,33.9931 -59.0396,60.2084 -101.7733,73.6745 -29.1608,9.18896 -54.5966,12.83826 -89.5,12.84046 -26.1085,0 -43.4589,-1.5795 -65.5,-5.969 -41.5287,-8.27056 -63.0934,-18.01436 -138.0001,-62.35366 -64.99315,-38.47127 -101.10955,-49.14231 -135.50004,-40.03517 -18.43029,4.88062 -31.55191,13.61153 -36.91371,24.56177 -5.09578,10.4069 -5.99212,14.8473 -5.93634,29.4078 0.0812,21.2014 5.24165,40.3839 17.47201,64.94766 12.72475,25.5567 28.74404,46.9673 52.03854,69.5523 51.89639,50.3155 117.91414,79.7016 197.83964,88.0633 19.7051,2.0615 60.5775,1.2718 74.4904,-1.4392 z M 63.227861,530.7577 c 6.92124,-1.9099 13.17317,-6.6567 15.49075,-11.7614 1.75463,-3.8648 1.90322,-6.9733 1.92349,-40.2383 0.0163,-26.73076 -0.28825,-36.36016 -1.17804,-37.24996 -1.5977,-1.5977 -10.27347,-1.5394 -11.61585,0.078 -0.68792,0.8289 -1.1703,13.28096 -1.37244,35.42846 -0.29974,32.8393 -0.3921,34.2588 -2.40537,36.9719 -5.46969,7.371 -24.00192,6.8718 -27.94475,-0.7528 -1.19606,-2.3129 -1.46158,-8.8616 -1.46158,-36.0473 0,-37.98496 0.23869,-36.87836 -7.95499,-36.87836 -2.55475,0 -5.18501,0.54 -5.84501,1.2 -1.66556,1.6655 -1.70115,68.39516 -0.0394,73.94146 1.49003,4.9733 6.98384,11.3813 11.91385,13.8964 7.68757,3.9219 19.42367,4.4654 30.48938,1.4118 z m 344.154469,-0.1486 c 2.87004,-0.8552 7.04434,-3.118 9.27622,-5.0284 7.66665,-6.5624 7.4672,-5.3837 7.82382,-46.2362 0.35761,-40.96556 0.70724,-39.03646 -7.07518,-39.03646 -8.21179,0 -7.74128,-2.1704 -7.75787,35.78516 -0.0159,36.2536 -0.0792,36.7376 -5.31217,40.6184 -3.85552,2.8592 -16.84597,3.0249 -21.05143,0.2686 -5.33421,-3.4962 -5.62166,-5.6151 -5.62166,-41.4401 0,-24.20276 -0.3154,-33.14746 -1.2,-34.03206 -1.47201,-1.472 -9.22208,-1.5797 -11.86574,-0.1648 -1.8522,0.9912 -1.93426,2.4315 -1.93426,33.95066 0,20.0188 0.42789,34.9108 1.09208,38.0078 1.40574,6.5548 6.16027,12.7455 12.15983,15.833 7.81797,4.0233 20.86178,4.6345 31.46636,1.4744 z m 155.86108,-0.4373 c 11.08838,-4.1038 18.84407,-14.5958 18.734,-25.3437 -0.0709,-6.9185 -1.96937,-11.9198 -6.4712,-17.0471 -3.78076,-4.3061 -9.41522,-7.2643 -20.80141,-10.9212 -14.25116,-4.5771 -17.04074,-6.8483 -17.04074,-13.8743 0,-3.0764 0.70247,-4.58 3.4,-7.2775 3.2501,-3.25006 3.72406,-3.39996 10.75,-3.39916 6.08934,6e-4 8.43739,0.5152 13.68979,2.99996 3.48688,1.6495 6.968,2.9992 7.73581,2.9992 2.03869,0 6.61331,-7.34406 5.83615,-9.36936 -0.90488,-2.3581 -7.8157,-6.1587 -14.89213,-8.1899 -12.43616,-3.5696 -25.68201,-1.4174 -33.74327,5.4827 -10.65977,9.12436 -11.70356,26.00376 -2.19026,35.41936 3.75628,3.7177 5.76753,4.6739 19.1123,9.0858 6.15911,2.0363 12.40114,4.6484 13.87118,5.8048 6.29264,4.9498 6.45117,14.047 0.33447,19.1939 -3.98614,3.3541 -6.29191,3.8581 -15.68774,3.4289 -6.09276,-0.2782 -8.96118,-0.9583 -13.1008,-3.1062 -7.16156,-3.7159 -8.66581,-3.5518 -11.09518,1.2101 -2.74475,5.3802 -2.56002,6.74 1.22968,9.0521 10.87483,6.6347 28.31037,8.2999 40.32935,3.8516 z m -417.62555,0.1859 c 0.96287,-0.6091 1.4694,-2.7145 1.5,-6.2347 l 0.0462,-5.315 -16.25,-0.2748 -16.25,-0.2748 v -37.1465 c 0,-42.38456 0.30815,-40.80386 -7.95499,-40.80386 -2.55475,0 -5.18501,0.54 -5.84501,1.2 -1.725949,1.7259 -1.725949,86.87396 0,88.59996 1.4589,1.4589 42.48049,1.6878 44.7538,0.2497 z m 52.01325,-0.1361 c 15.07748,-3.2335 23.28876,-17.648 18.95146,-33.2683 -1.17087,-4.2168 -7.89398,-12.1854 -11.15368,-13.22 -1.92149,-0.6098 -1.85092,-0.8072 1.11995,-3.1323 9.76703,-7.6438 9.99158,-23.5844 0.4568,-32.42886 -6.41692,-5.9523 -14.65358,-7.8109 -34.76284,-7.8443 -9.70887,-0.016 -12.26064,0.2873 -13.75,1.6352 -1.71719,1.554 -1.82874,4.2562 -1.82874,44.29996 0,31.835 0.30419,42.9492 1.2,43.845 1.55476,1.5547 32.63326,1.6435 39.76705,0.1136 z M 171.66406,504.808 v -13.5 h 11.04966 c 12.66577,0 15.91426,1.1158 18.05829,6.2028 1.78437,4.2337 1.78485,11.7604 9.7e-4,15.0937 -2.16622,4.0476 -7.72,5.7035 -19.12916,5.7035 h -9.97976 z m 0,-39 v -11.5 h 9.04966 c 13.64556,0 16.95034,2.3418 16.95034,12.0112 0,4.3506 -0.45017,5.5928 -2.92308,8.0657 -2.844,2.844 -3.19568,2.9231 -13,2.9231 h -10.07692 z m 100.99851,64.0018 c 0.79661,-0.9599 2.07231,-12.1332 3.55017,-31.0944 1.26871,-16.2779 2.48843,-29.7779 2.71049,-29.9999 0.22205,-0.2221 4.13771,12.9829 8.70147,29.3444 4.56377,16.3614 8.70545,30.5356 9.20374,31.4981 0.6537,1.2627 2.12651,1.75 5.28902,1.75 2.41066,0 5.02975,-0.2482 5.82018,-0.5515 0.90243,-0.3463 4.74608,-12.0361 10.33037,-31.4181 4.89126,-16.9766 9.0095,-30.7503 9.15166,-30.6082 0.14215,0.1422 1.34723,13.6319 2.67797,29.9772 1.47608,18.1305 2.88583,30.2805 3.61541,31.1596 1.50971,1.8191 11.28313,1.9659 12.71339,0.191 1.46616,-1.8195 -5.8478,-85.94306 -7.66224,-88.12936 -1.73783,-2.0939 -15.25374,-2.3242 -17.28351,-0.2944 -0.72943,0.7294 -5.1154,14.78046 -9.7466,31.22446 -4.6312,16.444 -8.55135,29.4597 -8.71145,28.9238 -0.16009,-0.536 -3.92577,-14.0245 -8.36816,-29.9745 -5.05824,-18.1611 -8.69296,-29.46716 -9.72489,-30.24996 -0.93341,-0.7081 -4.51683,-1.25 -8.26553,-1.25 -3.76248,0 -7.31754,0.5393 -8.2397,1.25 -1.33654,1.03 -2.26436,8.6158 -5.27253,43.10756 -2.00781,23.0217 -3.38036,42.9342 -3.05012,44.25 0.53983,2.1508 1.14149,2.3924 5.95896,2.3924 3.54031,0 5.7804,-0.5084 6.6019,-1.4982 z m 185.00149,-29.2943 0.5,-30.2925 14.5,27.6877 c 19.37741,37.0011 16.81078,33.3973 23.7853,33.3973 3.19809,0 6.3547,-0.54 7.0147,-1.2 0.89635,-0.8964 1.2,-12.1478 1.2,-44.4648 0,-41.75116 -0.0677,-43.30106 -1.93426,-44.29996 -2.7305,-1.4614 -9.34087,-1.2857 -11.51763,0.3059 -1.72653,1.2625 -1.8051,3.0523 -1.33895,30.49996 0.27236,16.0374 0.37688,29.1589 0.23227,29.1589 -0.1446,0 -6.94059,-12.9344 -15.10218,-28.7432 -8.16159,-15.8087 -15.62675,-29.53366 -16.58925,-30.49996 -1.20956,-1.2143 -3.3144,-1.7568 -6.81574,-1.7568 -9.70576,0 -8.93426,-3.9149 -8.93426,45.33516 0,33.1196 0.29111,43.5559 1.24145,44.5062 0.78754,0.7876 3.43834,1.1349 7.25,0.95 l 6.00855,-0.2914 z m 165.76188,-7.9575 0.26189,-38.25 h 10.05385 c 12.68737,0 13.92238,-0.6064 13.92238,-6.83516 0,-2.6207 -0.54,-5.3048 -1.2,-5.9648 -0.87639,-0.8764 -8.77778,-1.2 -29.3,-1.2 -20.52222,0 -28.42361,0.3236 -29.3,1.2 -1.55581,1.5558 -1.55581,10.0442 0,11.59996 0.77799,0.778 4.82222,1.2 11.5,1.2 h 10.3 v 37.3 c 0,28.3892 0.29687,37.5968 1.24266,38.5426 0.77183,0.7719 3.32936,1.1318 6.75,0.95 l 5.50734,-0.2926 z m 82.20294,36.8157 c 1.56169,-2.918 1.2432,-8.1784 -0.61981,-10.237 -1.48215,-1.6377 -3.46642,-1.8287 -19,-1.8287 h -17.34501 v -13 -13 h 12.56574 c 6.91116,0 13.43616,-0.4659 14.5,-1.0352 1.49688,-0.8011 1.93426,-2.1126 1.93426,-5.8 0,-2.6207 -0.54,-5.3048 -1.2,-5.9648 -0.81303,-0.8131 -5.48889,-1.2 -14.5,-1.2 h -13.3 v -11.5 -11.5 h 15.56574 c 8.56116,0 16.38319,-0.4375 17.38229,-0.9722 2.31108,-1.23686 3.7367,-9.49786 2.00016,-11.59026 -1.59548,-1.9224 -46.84281,-2.1429 -48.74819,-0.2375 -0.89666,0.8966 -1.2,12.22956 -1.2,44.83326 0,23.9983 0.3,43.9333 0.66667,44.3 0.36666,0.3667 11.82583,0.6667 25.46481,0.6667 23.49375,0 24.8526,-0.1018 25.83334,-1.9343 z m 27,0 c 0.59814,-1.1176 1.03518,-9.1744 1.03518,-19.0833 0,-13.2656 0.28307,-17.0587 1.25,-16.7497 1.944,0.6211 15.00815,18.1438 21.02836,28.205 l 5.42253,9.0623 7.09155,0.2926 c 6.15625,0.2541 7.22778,0.038 8.12443,-1.6373 0.86768,-1.6213 -0.65587,-4.3871 -9.52573,-17.2926 -5.80723,-8.4495 -11.48833,-16.3635 -12.62467,-17.5866 -2.00142,-2.1544 -2.00662,-2.243 -0.16627,-2.8348 9.15643,-2.9442 15.08846,-8.0533 17.48646,-15.0606 0.73043,-2.1344 1.34516,-6.5807 1.36608,-9.8807 0.0713,-11.2427 -6.53942,-20.50296 -17.45274,-24.44796 -5.07967,-1.8362 -33.52825,-2.6884 -35.48673,-1.063 -1.30827,1.0857 -1.51327,7.105 -1.51327,44.43336 0,32.2492 0.30372,43.4813 1.2,44.3776 0.66,0.66 3.56917,1.2 6.46482,1.2 4.18171,0 5.47778,-0.3979 6.3,-1.9343 z m 1.03518,-61.5657 v -13.5 h 7.09887 c 12.44918,0 17.67002,4.6461 16.68935,14.8523 -0.82672,8.6038 -5.8609,12.1477 -17.2561,12.1477 h -6.53212 z m 504.00014,-11.5376 c 61.7303,-5.53266 111.1047,-27.36156 143.8756,-63.60876 20.9131,-23.13153 36.6277,-55.75537 43.1988,-89.68149 2.1741,-11.22486 2.2295,-12.57587 1.0868,-26.5 -1.8921,-23.05512 -5.1591,-39.11595 -12.2589,-60.26558 C 1382.1303,122.56931 1298.655,45.70799 1198.6642,18.3395 c -26.3459,-7.21114 -50.483,-10.41904 -78.5,-10.4329 -21.8011,-0.0108 -36.4222,1.28787 -55.1051,4.89443 -13.3709,2.5811 -36.6969,8.53844 -36.0327,9.20257 0.2325,0.23256 5.513,1.08939 11.7343,1.90406 39.6152,5.18751 78.8541,20.74602 108.9035,43.18093 47.9485,35.79848 82.1933,88.80139 95.4409,147.72017 4.1562,18.48495 5.8655,34.37555 5.916,54.99926 0.069,28.17649 -2.8755,47.049 -11.3195,72.553 -13.895,41.96782 -39.8911,77.15332 -75.8197,102.62122 -8.0272,5.69 -9.1449,6.8086 -7.4353,7.441 2.0864,0.77176 24.9525,3.61636 33.7176,4.19446 11.9085,0.7854 36.9005,0.6027 47.5,-0.3473 z M 385.95242,432.29584 c 5.26678,-4.1429 3.95415,-12.6618 -2.28615,-14.8372 -7.05882,-2.4607 -13.47664,4.3848 -10.58934,11.2951 2.38573,5.7098 8.11566,7.2862 12.87549,3.5421 z m 26.25709,-0.4424 c 3.29128,-3.2912 3.39182,-9.3283 0.20455,-12.2817 -3.7034,-3.4316 -8.75137,-3.3533 -12.29545,0.1908 -3.44058,3.4406 -3.2611,7.8928 0.46853,11.6224 3.72963,3.7296 8.1818,3.9091 11.62237,0.4685 z m 415.43751,-53.0097 c 5.72083,-11.98694 15.63585,-20.15822 32.22045,-26.55393 37.30579,-14.38663 77.80038,-6.07666 137.79658,28.27743 5.77505,3.3068 10.75275,6.1504 11.06155,6.3191 0.3088,0.1687 -8.2734,-8.555 -19.07155,-19.38582 -35.5038,-35.61141 -56.1793,-63.28393 -74.4853,-99.6925 -12.06109,-23.98821 -19.04989,-44.83505 -23.13179,-69 -2.3259,-13.76987 -2.3821,-44.49072 -0.1051,-57.5 1.8559,-10.60332 6.8711,-28.82525 9.8394,-35.75005 1.0687,-2.49316 1.7649,-4.71118 1.5471,-4.92893 -0.2177,-0.21776 -4.3366,3.78343 -9.153,8.89153 -41.1376,43.62877 -68.84219,97.04057 -78.94882,152.20581 -4.1643,22.73004 -4.97315,32.09526 -4.93,57.08164 0.0516,29.90444 2.02126,45.94736 9.49909,77.37232 l 1.27839,5.3723 1.74598,-8.1161 c 0.96029,-4.4639 3.13695,-11.0306 4.83702,-14.5928 z m -333.76113,8.5888 c 7.303,-2.1315 20.70317,-5.3329 29.77817,-7.1142 10.70177,-2.1007 16.93926,-3.793 17.75,-4.8157 1.43027,-1.8043 1.65162,-9.01207 0.34034,-11.08268 -0.73733,-1.16432 -2.15627,-1.04342 -8.80278,0.75 -10.99317,2.96628 -14.75543,2.82404 -18.27021,-0.69074 -5.77219,-5.77219 -5.50195,1.61493 -5.69483,-155.6712 -0.15896,-129.62894 -0.34179,-145.10377 -1.72473,-145.97885 -1.69,-1.06938 -1.9591,-0.98202 -15.58747,5.06002 -4.66932,2.07011 -14.56932,5.88762 -22,8.48335 l -13.51032,4.71951 v 3.81067 c 0,3.57837 0.40017,4.08009 6.56467,8.23059 8.89168,5.98666 10.73552,8.947 11.9961,19.26012 1.33737,10.94139 0.8356,88.42077 -0.58181,89.8367 -0.69408,0.69335 -2.6154,0.50934 -6,-0.57467 -6.72764,-2.15469 -32.7041,-2.98326 -43.59642,-1.39059 -49.72421,7.27064 -83.34047,40.95453 -88.93987,89.11878 -5.45335,46.90809 20.44037,86.25429 62.88632,95.55739 11.67447,2.5587 29.60385,2.3324 39.67101,-0.5009 8.41155,-2.3673 22.64996,-9.0752 30.00534,-14.13579 7.11739,-4.8969 7.49466,-4.54104 7.49466,7.06939 0,10.2386 0.93015,13.9343 3.50702,13.9343 0.79016,0 7.41182,-1.744 14.71481,-3.8755 z m -64.72183,-22.18862 c -3.3,-0.4883 -9.07241,-1.86629 -12.82758,-3.0622 -18.98662,-6.04669 -34.12405,-23.46486 -41.21344,-47.42304 -3.27355,-11.06274 -4.45431,-31.92636 -2.50074,-44.18713 3.59725,-22.57676 16.00739,-42.26837 31.90265,-50.62109 9.80963,-5.15482 18.40021,-6.93852 30.86238,-6.40812 9.3294,0.39707 10.87949,0.75943 17.72854,4.14441 8.84014,4.36904 16.17858,11.15537 19.59555,18.12127 l 2.45264,5 0.31942,46.5755 c 0.17568,25.61652 -0.11297,50.51053 -0.64146,55.32001 -1.11266,10.12587 -2.19938,11.74612 -11.01494,16.42282 -10.50545,5.57319 -23.20041,7.81369 -34.66302,6.11757 z M 88.137171,383.79914 c 26.561009,-7.7307 40.526889,-24.40295 40.526889,-48.38038 0,-7.38062 -3.15815,-19.77699 -6.72815,-26.40933 -5.39935,-10.03091 -18.40394,-21.16392 -38.881209,-33.28556 -27.37655,-16.20571 -34.37099,-24.61388 -33.14813,-39.84814 0.55862,-6.95923 2.5492,-11.54547 7.11945,-16.40303 4.11323,-4.37181 6.93457,-5.76778 14.38907,-7.11953 17.47016,-3.16795 32.440739,6.03712 42.764369,26.29483 2.72808,5.35322 3.54872,6.20061 6.26571,6.46993 1.71956,0.17045 4.07577,-0.19813 5.23601,-0.81907 1.89539,-1.01439 2.04507,-1.70567 1.47453,-6.80991 -1.05244,-9.41541 -2.38564,-16.30147 -4.61981,-23.8616 -2.05292,-6.94682 -2.27264,-7.24535 -6.74693,-9.16694 -12.45371,-5.34853 -39.881099,-7.01666 -54.124899,-3.29188 -10.19376,2.66569 -15.38233,5.06172 -22.72733,10.49525 -17.80848,13.174 -23.17886,38.6575 -12.45536,59.10299 5.8935,11.23656 16.81906,20.95197 37.74495,33.56422 26.2162,15.80076 33.73105,25.00336 33.87017,41.47703 0.0579,6.85822 -0.34051,8.83105 -2.79161,13.82281 -5.10125,10.38888 -15.45133,15.43401 -29.48553,14.37261 -19.49388,-1.4744 -33.50054,-15.94438 -43.47727,-44.91562 -0.77897,-2.26205 -4.57725,-3.14881 -7.96704,-1.86001 -2.59087,0.98505 -2.71097,1.34018 -2.71097,8.01624 0,9.73369 1.88824,26.07264 3.85149,33.32695 1.63792,6.05224 1.69348,6.11574 8.6485,9.89044 6.45725,3.5044 18.84144,7.0878 28.5,8.2465 9.18135,1.1015 26.60296,-0.3271 35.4731,-2.9088 z m 166.617889,2.3845 c 8.76929,-1.1726 21.85027,-5.3106 30.409,-9.6196 12.20452,-6.14451 22.88067,-16.72112 30.90905,-30.6209 l 2.80991,-4.86488 -1.95838,-2.63512 c -3.00616,-4.04498 -6.28267,-3.89325 -9.19854,0.42597 -3.80663,5.63866 -13.90496,14.2377 -20.53391,17.48523 -8.29032,4.06145 -15.92199,5.26998 -29.52813,4.67598 -23.91296,-1.04396 -41.0662,-10.2938 -53.52488,-28.86315 -11.11874,-16.57221 -14.94436,-30.32065 -14.15198,-50.85915 0.87892,-22.78174 6.05096,-36.3331 18.75401,-49.13776 19.80507,-19.96347 48.64384,-23.4383 71.0564,-8.56169 3.08188,2.04563 8.56736,6.63986 12.18997,10.20939 8.65092,8.52416 12.53176,8.57177 16.84318,0.20662 4.81663,-9.34536 1.51298,-24.17187 -6.23,-27.95972 -12.36433,-6.04861 -38.44652,-8.41204 -58.4367,-5.29523 -24.34361,3.7956 -43.13332,12.37172 -57.0484,26.03839 -14.96605,14.69889 -24.26953,31.97417 -28.54276,53 -1.88402,9.2701 -1.44459,29.36013 0.88872,40.63002 3.05832,14.77175 10.79413,30.02539 20.66796,40.75353 17.52641,19.04287 46.51432,28.75087 74.62548,24.99207 z m 389.84089,-5.3335 c 1.48288,-0.9165 1.343,-8.0749 -0.18189,-9.30829 -0.6875,-0.55608 -4.175,-1.33588 -7.75,-1.73289 -13.1922,-1.46503 -16.48493,-4.69732 -18.08149,-17.74958 -0.61296,-5.01119 -0.90134,-28.55226 -0.72034,-58.80398 0.34079,-56.95921 -0.17902,-53.23853 8.5183,-60.97153 5.92949,-5.27206 16.85154,-10.59437 24.78353,-12.07701 6.45148,-1.20591 19.79933,-0.67061 25.51372,1.02319 6.72987,1.99479 14.29141,7.38886 18.1877,12.97427 8.70905,12.48463 9.78195,20.28275 9.78279,71.1037 6.5e-4,39.93571 -0.80805,52.29555 -3.75259,57.35269 -2.32244,3.98873 -5.32078,5.41814 -14.83587,7.07276 -7.9313,1.37922 -9.36512,2.38577 -9.36512,6.57457 0,5.3652 -1.61067,5.1806 45.41946,5.2065 29.71968,0.016 44.06157,-0.3182 44.78812,-1.0447 1.34997,-1.35 1.23611,-6.8854 -0.17665,-8.58765 -0.61146,-0.73676 -4.59465,-1.57889 -9.31491,-1.96937 -10.16409,-0.84081 -14.58908,-2.93644 -17.24665,-8.16783 -1.90741,-3.75472 -2.02826,-6.57565 -2.61047,-60.93697 -0.661,-61.71751 -0.68054,-61.94185 -6.45429,-74.10731 -8.79001,-18.52083 -25.63371,-27.52312 -51.49701,-27.52312 -17.79027,0 -34.89874,5.73896 -53.24221,17.85989 -3.74219,2.47275 -7.11719,4.18299 -7.5,3.80053 -1.03035,-1.02939 -1.33285,-95.64832 -0.40932,-128.02999 0.47745,-16.74099 0.4306,-28.50264 -0.11651,-29.25001 -1.4932,-2.03971 -3.6133,-1.51761 -16.70279,4.11329 -6.85707,2.9498 -17.53486,7.03866 -23.72843,9.08635 -11.83463,3.91271 -13.95153,5.57518 -12.82326,10.07053 0.36862,1.46873 2.59516,3.48356 6.00635,5.43525 6.1274,3.50574 11.18029,8.76358 12.31349,12.81293 0.42045,1.50241 0.76445,58.98166 0.76445,127.73166 0,114.52517 -0.13965,125.30773 -1.66647,128.67222 -2.384,5.25334 -5.62701,6.93692 -15.60187,8.09961 -5.00229,0.58307 -9.4791,1.66279 -10.48166,2.52799 -2.10264,1.8145 -2.25611,5.0325 -0.36853,7.7277 1.3415,1.9154 2.62696,1.9682 44.43189,1.8236 23.67774,-0.082 43.53107,-0.446 44.11853,-0.809 z m 328.419,-47.29212 c -4.4168,-14.43478 -5.6596,-23.56996 -5.6799,-41.75 -0.016,-14.80079 0.3698,-19.8216 2.1732,-28.24903 7.4911,-35.00561 25.3685,-66.79871 54.61475,-97.12644 35.8028,-37.12679 89.3314,-68.38056 128.4638,-75.00618 l 10.4226,-1.7647 -7.9226,-6.82346 c -23.4033,-20.15647 -56.6647,-36.99895 -88.9226,-45.02747 -26.6381,-6.62982 -54.8872,-8.54343 -68.50335,-4.64046 -15.8987,4.55726 -34.2698,14.40486 -52.3512,28.06222 -18.3665,13.87268 -19.8559,15.59175 -28.0855,32.41678 -11.776,24.07523 -17.19839,44.31853 -18.23249,68.06684 -2.0923,48.04836 16.47409,99.95056 53.76649,150.30352 7.1261,9.62179 20.6667,26.28838 21.3578,26.28838 0.1938,0 -0.3017,-2.1375 -1.101,-4.75 z"
     style="fill:#ffffff" />
</svg>
